<svg id="visual" viewBox="0 0 960 540" width="960" height="540" xmlns="http://www.w3.org/2000/svg" xmlns:xlink="http://www.w3.org/1999/xlink" version="1.1"><rect x="0" y="0" width="960" height="540" fill="#5db9ff"></rect><defs><linearGradient id="grad1_0" x1="43.8%" y1="100%" x2="100%" y2="0%"><stop offset="14.444444444444446%" stop-color="#940613" stop-opacity="1"></stop><stop offset="85.55555555555554%" stop-color="#940613" stop-opacity="1"></stop></linearGradient></defs><defs><linearGradient id="grad1_1" x1="43.8%" y1="100%" x2="100%" y2="0%"><stop offset="14.444444444444446%" stop-color="#940613" stop-opacity="1"></stop><stop offset="85.55555555555554%" stop-color="#b5397c" stop-opacity="1"></stop></linearGradient></defs><defs><linearGradient id="grad1_2" x1="43.8%" y1="100%" x2="100%" y2="0%"><stop offset="14.444444444444446%" stop-color="#9a7ed4" stop-opacity="1"></stop><stop offset="85.55555555555554%" stop-color="#b5397c" stop-opacity="1"></stop></linearGradient></defs><defs><linearGradient id="grad1_3" x1="43.8%" y1="100%" x2="100%" y2="0%"><stop offset="14.444444444444446%" stop-color="#9a7ed4" stop-opacity="1"></stop><stop offset="85.55555555555554%" stop-color="#5db9ff" stop-opacity="1"></stop></linearGradient></defs><defs><linearGradient id="grad2_0" x1="0%" y1="100%" x2="56.3%" y2="0%"><stop offset="14.444444444444446%" stop-color="#940613" stop-opacity="1"></stop><stop offset="85.55555555555554%" stop-color="#940613" stop-opacity="1"></stop></linearGradient></defs><defs><linearGradient id="grad2_1" x1="0%" y1="100%" x2="56.3%" y2="0%"><stop offset="14.444444444444446%" stop-color="#b5397c" stop-opacity="1"></stop><stop offset="85.55555555555554%" stop-color="#940613" stop-opacity="1"></stop></linearGradient></defs><defs><linearGradient id="grad2_2" x1="0%" y1="100%" x2="56.3%" y2="0%"><stop offset="14.444444444444446%" stop-color="#b5397c" stop-opacity="1"></stop><stop offset="85.55555555555554%" stop-color="#9a7ed4" stop-opacity="1"></stop></linearGradient></defs><defs><linearGradient id="grad2_3" x1="0%" y1="100%" x2="56.3%" y2="0%"><stop offset="14.444444444444446%" stop-color="#5db9ff" stop-opacity="1"></stop><stop offset="85.55555555555554%" stop-color="#9a7ed4" stop-opacity="1"></stop></linearGradient></defs><g transform="translate(960, 540)"><path d="M-540 0C-485.3 -53.5 -430.7 -107 -405.6 -168C-380.5 -229 -385 -297.6 -357.8 -357.8C-330.6 -418 -271.6 -469.9 -206.6 -498.9C-141.7 -527.9 -70.9 -533.9 0 -540L0 0Z" fill="#7c9df0"></path><path d="M-405 0C-364 -40.1 -323 -80.2 -304.2 -126C-285.4 -171.8 -288.8 -223.2 -268.3 -268.3C-247.9 -313.5 -203.7 -352.4 -155 -374.2C-106.3 -395.9 -53.1 -400.5 0 -405L0 0Z" fill="#ae5cac"></path><path d="M-270 0C-242.7 -26.7 -215.3 -53.5 -202.8 -84C-190.3 -114.5 -192.5 -148.8 -178.9 -178.9C-165.3 -209 -135.8 -235 -103.3 -249.4C-70.9 -263.9 -35.4 -267 0 -270L0 0Z" fill="#ac1647"></path><path d="M-135 0C-121.3 -13.4 -107.7 -26.7 -101.4 -42C-95.1 -57.3 -96.3 -74.4 -89.4 -89.4C-82.6 -104.5 -67.9 -117.5 -51.7 -124.7C-35.4 -132 -17.7 -133.5 0 -135L0 0Z" fill="#940613"></path></g><g transform="translate(0, 0)"><path d="M540 0C509.1 60.2 478.1 120.4 457.3 189.4C436.5 258.4 425.8 336.2 381.8 381.8C337.8 427.5 260.5 440.9 191.3 461.9C122.1 482.9 61.1 511.5 0 540L0 0Z" fill="#7c9df0"></path><path d="M405 0C381.8 45.2 358.6 90.3 343 142.1C327.4 193.8 319.4 252.2 286.4 286.4C253.4 320.6 195.4 330.7 143.5 346.5C91.6 362.2 45.8 383.6 0 405L0 0Z" fill="#ae5cac"></path><path d="M270 0C254.5 30.1 239.1 60.2 228.7 94.7C218.3 129.2 212.9 168.1 190.9 190.9C168.9 213.7 130.3 220.5 95.7 231C61.1 241.5 30.5 255.7 0 270L0 0Z" fill="#ac1647"></path><path d="M135 0C127.3 15.1 119.5 30.1 114.3 47.4C109.1 64.6 106.5 84.1 95.5 95.5C84.5 106.9 65.1 110.2 47.8 115.5C30.5 120.7 15.3 127.9 0 135L0 0Z" fill="#940613"></path></g></svg>